# This file uses centimeters as units for non-parametric coordinates.

mtllib test-leaf.mtl
g default
v -1.429261 -0.000000 1.429261
v 1.429261 -0.000000 1.429261
v -1.429261 0.000000 -1.429261
v 1.429261 0.000000 -1.429261
vt 0.000000 0.000000
vt 1.000000 0.000000
vt 0.000000 1.000000
vt 1.000000 1.000000
vn 0.000000 1.000000 0.000000
vn 0.000000 1.000000 0.000000
vn 0.000000 1.000000 0.000000
vn 0.000000 1.000000 0.000000
s off
g scene05_leaf:pPlane1
usemtl scene05_leaf:lambert2SG
f 4/4/1 3/3/2 1/1/3 2/2/4
